<?xml version="1.0" encoding="UTF-8"?>
<svg xmlns="http://www.w3.org/2000/svg" width="213.5" height="100.8" xmlns:svg="http://www.w3.org/2000/svg" version="1.1" viewBox="0 0 213.5 100.8">
  <defs>
    <style>
      .cls-1 {
        fill: #548b38;
      }

      .cls-2 {
        fill: #1c95d3;
      }

      .cls-3 {
        fill: #16496b;
      }

      .cls-4 {
        fill: #e4b632;
      }

      .cls-5 {
        fill: #28bce1;
      }

      .cls-6 {
        fill: #00b1cd;
      }

      .cls-7 {
        fill: #086a9c;
      }

      .cls-8 {
        fill: #231f20;
      }

      .cls-9 {
        fill: #ea8570;
      }

      .cls-10 {
        fill: #f8c219;
      }

      .cls-11 {
        fill: #ee422a;
      }

      .cls-12 {
        fill: #f16b2d;
      }

      .cls-13 {
        fill: #8c3624;
      }

      .cls-14 {
        fill: #457632;
      }

      .cls-15 {
        fill: #82a646;
      }

      .cls-16 {
        fill: #a21c44;
      }

      .cls-17 {
        fill: #c5962e;
      }

      .cls-18 {
        fill: #38632a;
      }

      .cls-19 {
        fill: #007da8;
      }

      .cls-20 {
        fill: #e64a2e;
      }

      .cls-21 {
        fill: #e1732e;
      }

      .cls-22 {
        fill: #eda373;
      }

      .cls-23 {
        fill: #dc1769;
      }

      .cls-24 {
        fill: #d79932;
      }

      .cls-25 {
        fill: #62a03e;
      }

      .cls-26 {
        fill: #fff;
      }

      .cls-27 {
        fill: #58b588;
      }

      .cls-28 {
        fill: #efa429;
      }

      .cls-29 {
        fill: #ec6735;
      }

      .cls-30 {
        fill: #90c847;
      }

      .cls-31 {
        fill: #5fba47;
      }

      .cls-32 {
        fill: #72b944;
      }

      .cls-33 {
        fill: #f99e29;
      }

      .cls-34 {
        fill: #d0e06c;
      }

      .cls-35 {
        fill: #1e8a76;
      }

      .cls-36 {
        fill: #a2ce58;
      }

      .cls-37 {
        fill: #5dba47;
      }

      .cls-38 {
        fill: #c4202f;
      }

      .cls-39 {
        fill: #6bb244;
      }

      .cls-40 {
        fill: #bd622f;
      }

      .cls-41 {
        fill: #4b9f46;
      }

      .cls-42 {
        fill: #797a7d;
      }

      .cls-43 {
        fill: #ef4136;
      }

      .cls-44 {
        fill: #a56266;
      }

      .cls-45 {
        fill: #b7b556;
      }

      .cls-46 {
        fill: #f2ba41;
      }

      .cls-47 {
        fill: #007690;
      }

      .cls-48 {
        fill: #e6253d;
      }

      .cls-49 {
        fill: #1a4f79;
      }

      .cls-50 {
        fill: #91c44b;
      }

      .cls-51 {
        fill: #13aa8c;
      }

      .cls-52 {
        fill: #b79885;
      }

      .cls-53 {
        fill: #2c713a;
      }

      .cls-54 {
        fill: #418045;
      }
    </style>
  </defs>
  <!-- Generator: Adobe Illustrator 28.7.1, SVG Export Plug-In . SVG Version: 1.2.0 Build 142)  -->
  <g>
    <g id="Layer_1">
      <g id="Layer_2">
        <g id="linhas">
          <g>
            <path class="cls-37" d="M74.4,64.6c-.1-.2-.6.1-.5.3s.6-.1.5-.3Z"/>
            <path class="cls-37" d="M75.3,63.9c-.1-.2-.6.1-.5.3s.6-.1.5-.3Z"/>
            <path class="cls-37" d="M76.3,63.2c-.1-.2-.6.1-.5.3s.6-.1.5-.3Z"/>
            <path class="cls-37" d="M77.3,62.6c-.1-.2-.6.1-.5.3s.6-.1.5-.3Z"/>
            <path class="cls-37" d="M78.2,61.9c-.1-.2-.6.1-.5.3s.6-.1.5-.3Z"/>
            <path class="cls-37" d="M79.2,61.2c-.1-.2-.6.1-.5.3s.6-.1.5-.3Z"/>
            <path class="cls-37" d="M80.2,60.5c-.1-.2-.6.1-.5.3s.6-.1.5-.3Z"/>
            <path class="cls-37" d="M81.2,59.9c-.1-.2-.6.1-.5.3s.6-.1.5-.3Z"/>
            <path class="cls-37" d="M82.1,59.2c-.1-.2-.6.1-.5.3s.6-.1.5-.3Z"/>
            <path class="cls-37" d="M83.1,58.5c-.1-.2-.6.1-.5.3s.6-.1.5-.3Z"/>
          </g>
          <g>
            <g>
              <path class="cls-37" d="M86.3,56.4c-.1-.2-.6.1-.5.3s.6-.1.5-.3Z"/>
              <path class="cls-37" d="M87.2,55.7c-.1-.2-.6.1-.5.3s.6-.1.5-.3Z"/>
              <path class="cls-37" d="M88.2,55c-.1-.2-.6.1-.5.3s.6-.1.5-.3Z"/>
            </g>
            <g>
              <path class="cls-37" d="M64.8,63c-.2.2.2.6.4.4s-.2-.6-.4-.4Z"/>
              <path class="cls-37" d="M64,62.1c-.2.2.2.6.4.4s-.2-.6-.4-.4Z"/>
              <path class="cls-37" d="M63.3,61.2c-.2.2.2.6.4.4s-.2-.6-.4-.4Z"/>
              <path class="cls-37" d="M62.5,60.3c-.2.2.2.6.4.4s-.2-.6-.4-.4Z"/>
              <path class="cls-37" d="M61.7,59.4c-.2.2.2.6.4.4s-.2-.6-.4-.4Z"/>
              <path class="cls-37" d="M60.9,58.5c-.2.2.2.6.4.4s-.2-.6-.4-.4Z"/>
            </g>
            <g>
              <path class="cls-37" d="M42.6,58.5c0-.2-.5-.4-.6-.2s.5.4.6.2Z"/>
              <path class="cls-37" d="M43.7,58.9c0-.2-.5-.4-.6-.2s.5.4.6.2Z"/>
              <path class="cls-37" d="M44.8,59.3c0-.2-.5-.4-.6-.2s.5.4.6.2Z"/>
              <path class="cls-37" d="M45.9,59.8c0-.2-.5-.4-.6-.2s.5.4.6.2Z"/>
              <path class="cls-37" d="M47,60.2c0-.2-.5-.4-.6-.2s.5.4.6.2Z"/>
              <path class="cls-37" d="M48.2,60.6c0-.2-.5-.4-.6-.2s.5.4.6.2Z"/>
              <path class="cls-37" d="M49.3,61c0-.2-.5-.4-.6-.2s.5.4.6.2Z"/>
              <path class="cls-37" d="M50.4,61.4c0-.2-.5-.4-.6-.2s.5.4.6.2Z"/>
              <path class="cls-37" d="M51.5,61.8c0-.2-.5-.4-.6-.2s.5.4.6.2Z"/>
              <path class="cls-37" d="M52.6,62.2c0-.2-.5-.4-.6-.2s.5.4.6.2Z"/>
              <path class="cls-37" d="M53.7,62.6c0-.2-.5-.4-.6-.2s.5.4.6.2Z"/>
              <path class="cls-37" d="M54.8,63c0-.2-.5-.4-.6-.2s.5.4.6.2Z"/>
              <path class="cls-37" d="M55.9,63.4c0-.2-.5-.4-.6-.2s.5.4.6.2Z"/>
              <path class="cls-37" d="M57,63.8c0-.2-.5-.4-.6-.2s.5.4.6.2Z"/>
              <path class="cls-37" d="M58.1,64.2c0-.2-.5-.4-.6-.2s.5.4.6.2Z"/>
              <path class="cls-37" d="M59.3,64.6c0-.2-.5-.4-.6-.2s.5.4.6.2Z"/>
              <path class="cls-37" d="M60.4,65c0-.2-.5-.4-.6-.2s.5.4.6.2Z"/>
              <path class="cls-37" d="M61.5,65.4c0-.2-.5-.4-.6-.2s.5.4.6.2Z"/>
              <path class="cls-37" d="M62.6,65.8c0-.2-.5-.4-.6-.2s.5.4.6.2Z"/>
              <path class="cls-37" d="M63.7,66.2c0-.2-.5-.4-.6-.2s.5.4.6.2Z"/>
            </g>
            <g>
              <path class="cls-37" d="M125.3,76.3c.1-.2-.3-.5-.5-.3s.3.5.5.3Z"/>
              <path class="cls-37" d="M126.3,77c.1-.2-.3-.5-.5-.3s.3.5.5.3Z"/>
              <path class="cls-37" d="M127.2,77.7c.1-.2-.3-.5-.5-.3s.3.5.5.3Z"/>
              <path class="cls-37" d="M128.2,78.4c.1-.2-.3-.5-.5-.3s.3.5.5.3Z"/>
              <path class="cls-37" d="M129.1,79.1c.1-.2-.3-.5-.5-.3s.3.5.5.3Z"/>
              <path class="cls-37" d="M130.1,79.8c.1-.2-.3-.5-.5-.3s.3.5.5.3Z"/>
              <path class="cls-37" d="M131,80.5c.1-.2-.3-.5-.5-.3s.3.5.5.3Z"/>
              <path class="cls-37" d="M132,81.2c.1-.2-.3-.5-.5-.3s.3.5.5.3Z"/>
              <path class="cls-37" d="M133,81.9c.1-.2-.3-.5-.5-.3s.3.5.5.3Z"/>
              <path class="cls-37" d="M133.9,82.6c.1-.2-.3-.5-.5-.3s.3.5.5.3Z"/>
              <path class="cls-37" d="M134.9,83.3c.1-.2-.3-.5-.5-.3s.3.5.5.3Z"/>
              <path class="cls-37" d="M135.8,83.9c.1-.2-.3-.5-.5-.3s.3.5.5.3Z"/>
              <path class="cls-37" d="M136.8,84.6c.1-.2-.3-.5-.5-.3s.3.5.5.3Z"/>
            </g>
            <g>
              <path class="cls-37" d="M144.6,84.6c-.1-.2-.6,0-.5.3s.6,0,.5-.3Z"/>
              <path class="cls-37" d="M145.6,84.1c-.1-.2-.6,0-.5.3s.6,0,.5-.3Z"/>
              <path class="cls-37" d="M146.7,83.5c-.1-.2-.6,0-.5.3s.6,0,.5-.3Z"/>
              <path class="cls-37" d="M147.7,83c-.1-.2-.6,0-.5.3s.6,0,.5-.3Z"/>
              <path class="cls-37" d="M148.8,82.4c-.1-.2-.6,0-.5.3s.6,0,.5-.3Z"/>
              <path class="cls-37" d="M149.8,81.9c-.1-.2-.6,0-.5.3s.6,0,.5-.3Z"/>
              <path class="cls-37" d="M150.9,81.3c-.1-.2-.6,0-.5.3s.6,0,.5-.3Z"/>
              <path class="cls-37" d="M151.9,80.8c-.1-.2-.6,0-.5.3s.6,0,.5-.3Z"/>
              <path class="cls-37" d="M153,80.3c-.1-.2-.6,0-.5.3s.6,0,.5-.3Z"/>
              <path class="cls-37" d="M154,79.7c-.1-.2-.6,0-.5.3s.6,0,.5-.3Z"/>
              <path class="cls-37" d="M155.1,79.2c-.1-.2-.6,0-.5.3s.6,0,.5-.3Z"/>
              <path class="cls-37" d="M156.1,78.6c-.1-.2-.6,0-.5.3s.6,0,.5-.3Z"/>
              <path class="cls-37" d="M157.2,78.1c-.1-.2-.6,0-.5.3s.6,0,.5-.3Z"/>
              <path class="cls-37" d="M158.2,77.5c-.1-.2-.6,0-.5.3s.6,0,.5-.3Z"/>
              <path class="cls-37" d="M159.3,77c-.1-.2-.6,0-.5.3s.6,0,.5-.3Z"/>
              <path class="cls-37" d="M160.3,76.4c-.1-.2-.6,0-.5.3s.6,0,.5-.3Z"/>
              <path class="cls-37" d="M161.4,75.9c-.1-.2-.6,0-.5.3s.6,0,.5-.3Z"/>
              <path class="cls-37" d="M165,74c-.1-.2-.6,0-.5.3s.6,0,.5-.3Z"/>
              <path class="cls-37" d="M166.1,73.4c-.1-.2-.6,0-.5.3s.6,0,.5-.3Z"/>
              <path class="cls-37" d="M167.1,72.9c-.1-.2-.6,0-.5.3s.6,0,.5-.3Z"/>
              <path class="cls-37" d="M168.2,72.4c-.1-.2-.6,0-.5.3s.6,0,.5-.3Z"/>
              <path class="cls-37" d="M169.2,71.8c-.1-.2-.6,0-.5.3s.6,0,.5-.3Z"/>
            </g>
            <g>
              <path class="cls-37" d="M106.3,59.9c0-.2-.4-.5-.5-.2s.4.5.5.2Z"/>
              <path class="cls-37" d="M107.4,60.4c0-.2-.4-.5-.5-.2s.4.5.5.2Z"/>
              <path class="cls-37" d="M108.5,60.8c0-.2-.4-.5-.5-.2s.4.5.5.2Z"/>
              <path class="cls-37" d="M109.6,61.3c0-.2-.4-.5-.5-.2s.4.5.5.2Z"/>
              <path class="cls-37" d="M110.7,61.8c0-.2-.4-.5-.5-.2s.4.5.5.2Z"/>
              <path class="cls-37" d="M111.7,62.3c0-.2-.4-.5-.5-.2s.4.5.5.2Z"/>
            </g>
            <g>
              <path class="cls-37" d="M117.1,42.5c-.1-.2-.6.1-.5.3s.6-.1.5-.3Z"/>
              <path class="cls-37" d="M118.1,41.8c-.1-.2-.6.1-.5.3s.6-.1.5-.3Z"/>
              <path class="cls-37" d="M119,41.1c-.1-.2-.6.1-.5.3s.6-.1.5-.3Z"/>
              <path class="cls-37" d="M120,40.4c-.1-.2-.6.1-.5.3s.6-.1.5-.3Z"/>
              <path class="cls-37" d="M121,39.7c-.1-.2-.6.1-.5.3s.6-.1.5-.3Z"/>
              <path class="cls-37" d="M121.9,39c-.1-.2-.6.1-.5.3s.6-.1.5-.3Z"/>
              <path class="cls-37" d="M122.9,38.3c-.1-.2-.6.1-.5.3s.6-.1.5-.3Z"/>
              <path class="cls-37" d="M123.8,37.6c-.1-.2-.6.1-.5.3s.6-.1.5-.3Z"/>
              <path class="cls-37" d="M124.8,36.9c-.1-.2-.6.1-.5.3s.6-.1.5-.3Z"/>
              <path class="cls-37" d="M125.7,36.2c-.1-.2-.6.1-.5.3s.6-.1.5-.3Z"/>
            </g>
            <g>
              <path class="cls-37" d="M27.4,25.3c0-.2-.6,0-.6.2s.6,0,.6-.2Z"/>
              <path class="cls-37" d="M28.5,24.8c0-.2-.6,0-.6.2s.6,0,.6-.2Z"/>
              <path class="cls-37" d="M29.6,24.4c0-.2-.6,0-.6.2s.6,0,.6-.2Z"/>
              <path class="cls-37" d="M30.7,24c0-.2-.6,0-.6.2s.6,0,.6-.2Z"/>
              <path class="cls-37" d="M31.8,23.6c0-.2-.6,0-.6.2s.6,0,.6-.2Z"/>
              <path class="cls-37" d="M32.9,23.2c0-.2-.6,0-.6.2s.6,0,.6-.2Z"/>
              <path class="cls-37" d="M34,22.8c0-.2-.6,0-.6.2s.6,0,.6-.2Z"/>
              <path class="cls-37" d="M35.1,22.4c0-.2-.6,0-.6.2s.6,0,.6-.2Z"/>
              <path class="cls-37" d="M36.2,22c0-.2-.6,0-.6.2s.6,0,.6-.2Z"/>
              <path class="cls-37" d="M37.4,21.6c0-.2-.6,0-.6.2s.6,0,.6-.2Z"/>
              <path class="cls-37" d="M38.5,21.2c0-.2-.6,0-.6.2s.6,0,.6-.2Z"/>
              <path class="cls-37" d="M39.6,20.8c0-.2-.6,0-.6.2s.6,0,.6-.2Z"/>
              <path class="cls-37" d="M40.7,20.4c0-.2-.6,0-.6.2s.6,0,.6-.2Z"/>
              <path class="cls-37" d="M41.8,20c0-.2-.6,0-.6.2s.6,0,.6-.2Z"/>
              <path class="cls-37" d="M42.9,19.6c0-.2-.6,0-.6.2s.6,0,.6-.2Z"/>
              <path class="cls-37" d="M44,19.2c0-.2-.6,0-.6.2s.6,0,.6-.2Z"/>
              <path class="cls-37" d="M45.1,18.8c0-.2-.6,0-.6.2s.6,0,.6-.2Z"/>
              <path class="cls-37" d="M46.2,18.4c0-.2-.6,0-.6.2s.6,0,.6-.2Z"/>
            </g>
          </g>
          <g>
            <g>
              <path class="cls-37" d="M139.2,35.6c.1-.2-.4-.5-.5-.3s.4.5.5.3Z"/>
              <path class="cls-37" d="M140.3,36.1c.1-.2-.4-.5-.5-.3s.4.5.5.3Z"/>
              <path class="cls-37" d="M141.3,36.7c.1-.2-.4-.5-.5-.3s.4.5.5.3Z"/>
              <path class="cls-37" d="M142.4,37.2c.1-.2-.4-.5-.5-.3s.4.5.5.3Z"/>
              <path class="cls-37" d="M143.4,37.8c.1-.2-.4-.5-.5-.3s.4.5.5.3Z"/>
              <path class="cls-37" d="M144.5,38.3c.1-.2-.4-.5-.5-.3s.4.5.5.3Z"/>
              <path class="cls-37" d="M145.5,38.9c.1-.2-.4-.5-.5-.3s.4.5.5.3Z"/>
              <path class="cls-37" d="M146.6,39.4c.1-.2-.4-.5-.5-.3s.4.5.5.3Z"/>
              <path class="cls-37" d="M147.6,40c.1-.2-.4-.5-.5-.3s.4.5.5.3Z"/>
              <path class="cls-37" d="M148.7,40.5c.1-.2-.4-.5-.5-.3s.4.5.5.3Z"/>
              <path class="cls-37" d="M149.7,41c.1-.2-.4-.5-.5-.3s.4.5.5.3Z"/>
              <path class="cls-37" d="M150.8,41.6c.1-.2-.4-.5-.5-.3s.4.5.5.3Z"/>
              <path class="cls-37" d="M151.8,42.1c.1-.2-.4-.5-.5-.3s.4.5.5.3Z"/>
            </g>
            <path class="cls-37" d="M155.9,44.3c.1-.2-.4-.5-.5-.3s.4.5.5.3Z"/>
            <path class="cls-37" d="M157,44.8c.1-.2-.4-.5-.5-.3s.4.5.5.3Z"/>
          </g>
          <g>
            <path class="cls-37" d="M110.6,45.1c0-.2-.6-.1-.6.1s.6.1.6-.1Z"/>
            <path class="cls-37" d="M111.7,44.9c0-.2-.6-.1-.6.1s.6.1.6-.1Z"/>
          </g>
          <g>
            <path class="cls-37" d="M42.5,27.4c-.2-.2-.6.3-.4.4s.6-.3.4-.4Z"/>
            <path class="cls-37" d="M43.3,26.5c-.2-.2-.6.3-.4.4s.6-.3.4-.4Z"/>
            <path class="cls-37" d="M44,25.6c-.2-.2-.6.3-.4.4s.6-.3.4-.4Z"/>
            <path class="cls-37" d="M44.8,24.8c-.2-.2-.6.3-.4.4s.6-.3.4-.4Z"/>
            <path class="cls-37" d="M45.6,23.9c-.2-.2-.6.3-.4.4s.6-.3.4-.4Z"/>
            <path class="cls-37" d="M46.4,23c-.2-.2-.6.3-.4.4s.6-.3.4-.4Z"/>
            <path class="cls-37" d="M47.2,22.1c-.2-.2-.6.3-.4.4s.6-.3.4-.4Z"/>
            <path class="cls-37" d="M47.9,21.2c-.2-.2-.6.3-.4.4s.6-.3.4-.4Z"/>
          </g>
          <g>
            <path class="cls-37" d="M58.2,20.2c.1-.2-.3-.5-.5-.3s.3.5.5.3Z"/>
            <path class="cls-37" d="M59.2,20.9c.1-.2-.3-.5-.5-.3s.3.5.5.3Z"/>
            <path class="cls-37" d="M60.2,21.6c.1-.2-.3-.5-.5-.3s.3.5.5.3Z"/>
            <path class="cls-37" d="M61.1,22.2c.1-.2-.3-.5-.5-.3s.3.5.5.3Z"/>
            <path class="cls-37" d="M62.1,22.9c.1-.2-.3-.5-.5-.3s.3.5.5.3Z"/>
            <path class="cls-37" d="M63.1,23.6c.1-.2-.3-.5-.5-.3s.3.5.5.3Z"/>
            <path class="cls-37" d="M64,24.3c.1-.2-.3-.5-.5-.3s.3.5.5.3Z"/>
            <path class="cls-37" d="M65,25c.1-.2-.3-.5-.5-.3s.3.5.5.3Z"/>
            <path class="cls-37" d="M69.2,27.9c.1-.2-.3-.5-.5-.3s.3.5.5.3Z"/>
            <path class="cls-37" d="M70.1,28.6c.1-.2-.3-.5-.5-.3s.3.5.5.3Z"/>
            <path class="cls-37" d="M71.1,29.3c.1-.2-.3-.5-.5-.3s.3.5.5.3Z"/>
          </g>
          <g>
            <path class="cls-37" d="M82.3,37.9c.1-.2-.3-.5-.5-.3s.3.5.5.3Z"/>
            <path class="cls-37" d="M83.2,38.6c.1-.2-.3-.5-.5-.3s.3.5.5.3Z"/>
            <path class="cls-37" d="M84.2,39.2c.1-.2-.3-.5-.5-.3s.3.5.5.3Z"/>
            <path class="cls-37" d="M85.2,39.9c.1-.2-.3-.5-.5-.3s.3.5.5.3Z"/>
            <path class="cls-37" d="M86.1,40.6c.1-.2-.3-.5-.5-.3s.3.5.5.3Z"/>
            <path class="cls-37" d="M87.1,41.3c.1-.2-.3-.5-.5-.3s.3.5.5.3Z"/>
            <path class="cls-37" d="M88.1,42c.1-.2-.3-.5-.5-.3s.3.5.5.3Z"/>
            <path class="cls-37" d="M89,42.7c.1-.2-.3-.5-.5-.3s.3.5.5.3Z"/>
          </g>
          <g>
            <path class="cls-37" d="M85.1,43.6c0-.2-.5-.3-.6,0s.5.3.6,0Z"/>
            <path class="cls-37" d="M86.3,43.8c0-.2-.5-.3-.6,0s.5.3.6,0Z"/>
            <path class="cls-37" d="M87.5,44c0-.2-.5-.3-.6,0s.5.3.6,0Z"/>
            <path class="cls-37" d="M88.6,44.1c0-.2-.5-.3-.6,0s.5.3.6,0Z"/>
          </g>
        </g>
        <g id="atomos">
          <path id="atomos-2" class="cls-47" d="M138.4,28.7l-1.6-2.9,1.5-1.3-.2-.2-1.6,1.4h-3.4s-1.7,2.9-1.7,2.9h-3.3s-1.8,3-1.8,3l1.6,2.9-1.8,1.2.2.2,1.9-1.3h3.3s1.6,2.9,1.6,2.9h3.5s1.8-3,1.8-3l-1.7-2.9,1.7-2.9h0ZM133.4,25.9h3.2s1.6,2.8,1.6,2.8l-1.6,2.7h-3.2s-1.6-2.8-1.6-2.8l1.6-2.7ZM126.7,31.6l1.6-2.7h3.2s1.6,2.8,1.6,2.8l-1.6,2.7h-3.1s0,0,0,0h0s-1.5-2.7-1.5-2.7h0ZM136.5,37.3h-3.2s-1.6-2.8-1.6-2.8l1.6-2.7h3.2s1.6,2.8,1.6,2.8l-1.6,2.7ZM136.3,31h-2.7v-.2h2.7v.2ZM131.2,29.5h-2.7v-.2h2.7v.2ZM132.5,34.4l1.3,2.4h-.2c0,.1-1.3-2.2-1.3-2.2h.2Z"/>
        </g>
        <g id="dot">
          <path class="cls-36" d="M141.9,85.9c-.7-2-3.7-1-3.1,1,.7,2,3.7,1,3.1-1Z"/>
          <path class="cls-34" d="M138.7,89.6c1.7.9,3.9.3,4.8-1.5,2.1-4.3-4-7.5-6.3-3.4-.9,1.7-.3,3.9,1.5,4.8ZM141.5,84.4c1.1.6,1.6,2,1,3.2-1.6,2.7-5.5.6-4.2-2.2.6-1.1,2-1.6,3.2-1h0Z"/>
        </g>
        <path id="letering" class="cls-8" d="M16.1,32.2c.5,5.3-3.7,9.2-8.2,9.1-10.9-.2-10.7-16,0-16,3.7,0,6.9,2.5,7.7,5.5h-4.4c-.6-1.1-1.7-2-3.4-2-5.7,0-5.5,9.1,0,9.1,2,0,3.3-1,3.7-2.5h-4.6v-3.1h9.1ZM17.6,25.6h8.6v3.5h-4.8v2.4h4.6v3.5h-4.6v2.6h4.8v3.5h-8.6s0-15.4,0-15.4ZM28.6,25.6h3.4l6,9.7c.1,0-.2-9.6-.1-9.7,0,0,3.8,0,3.8,0v15.4h-3.4l-5.9-9.4c-.1,0,.1,9.4,0,9.4,0,0-3.8,0-3.8,0v-15.4h0ZM44.4,25.6h8.6v3.5h-4.8v2.4h4.6v3.5h-4.6v2.6h4.8v3.5h-8.6s0-15.4,0-15.4ZM58.4,25.6s3,10.9,3.1,10.8c0,0,3.1-10.8,3.1-10.8h4.1l-5.2,15.4h-4.1l-5.1-15.4h4ZM72.2,38.8l-.8,2.2h-4.2l6.2-15.4h3.1l6.1,15.4h-4.3l-.8-2.2h-5.4ZM73.3,35.6h3.2l-1.6-5.3c-.1-.1-1.6,5.3-1.6,5.3h0ZM28.7,42.6h8.6v3.5h-4.8v2.4h4.6v3.5h-4.6v2.6h4.8v3.5h-8.6v-15.4h0ZM40,42.6h3.4l6,9.7c.1,0-.2-9.6-.1-9.7,0,0,3.8,0,3.8,0v15.4h-3.4l-5.9-9.4c-.1,0,.1,9.4,0,9.4,0,0-3.8,0-3.8,0v-15.4h0ZM57.4,42.6s3,10.9,3.1,10.8c0,0,3.1-10.8,3.1-10.8h4.1l-5.2,15.4h-4.1l-5.1-15.4h4ZM68.4,42.6h3.9v15.4h-3.9v-15.4ZM74.7,42.6c2.4,0,8.3-.4,9.6,1.1,2.9,2.4,2.7,8.1-1.9,9.1,0,0,4.2,5.2,4.2,5.2h-4.5l-3.6-5c-.1,0,0,5,0,5,0,0-3.8,0-3.8,0v-15.4h0ZM78.4,50.4c2.5.1,4-.3,4-2.2,0-2.1-2.3-2.2-4-2.1,0,0,0,4.3,0,4.3h0ZM112.2,42.6h3.4l6,9.7h0s-.2-9.7-.2-9.7h3.8v15.4h-3.4l-5.9-9.4c-.1,0,.1,9.4,0,9.4,0,0-3.8,0-3.8,0v-15.4h0ZM127.3,42.6h5.1l3.1,10.1h0l3-10.1h5.1v15.4h-3.6v-11.5c.1,0,0,0,0,0l-3.3,11.6h-2.6s-3.3-11.8-3.3-11.5c0,0,.1,11.5.1,11.5h-3.6v-15.4h0ZM146.4,42.6h8.6v3.5h-4.8v2.4h4.6v3.5h-4.6v2.6h4.8v3.5h-8.6v-15.4h0ZM157.4,42.6h3.4l6,9.7c.1,0-.2-9.6-.1-9.7,0,0,3.8,0,3.8,0v15.4h-3.4l-5.9-9.4c-.1,0,.1,9.4,0,9.4,0,0-3.8,0-3.8,0v-15.4h0ZM175.1,46.1h-3v-3.5h10v3.5h-3v12h-3.9v-12h0ZM112.3,60.2h3.4l6,9.7c.1,0-.2-9.6-.1-9.7,0,0,3.8,0,3.8,0v15.4h-3.4l-5.9-9.4c-.1,0,.1,9.4,0,9.4,0,0-3.8,0-3.8,0v-15.4h0ZM127.8,60.2h8.6v3.5h-4.8v2.4h4.6v3.5h-4.6v2.6h4.8v3.5h-8.6v-15.4h0ZM140.7,63.6h-3v-3.5h10v3.5h-3v12h-3.9v-12h0ZM152.1,60.2s2,10.1,2.1,10c0,0,2.3-10,2.3-10h3s2.2,10.1,2.3,10.1c0,0,2.1-10.1,2.1-10.1h4l-4.1,15.4h-3.5l-2.3-10c-.1,0-2.3,10-2.4,10,0,0-3.6,0-3.6,0l-4-15.4h4ZM187,60.2c2.4,0,8.3-.4,9.6,1.1,2.9,2.4,2.7,8.1-1.9,9.1,0,0,4.2,5.2,4.2,5.2h-4.5l-3.6-5c-.1,0,0,5,0,5,0,0-3.8,0-3.8,0v-15.4h0ZM190.7,67.9c2.5.1,4-.3,4-2.2,0-2.1-2.3-2.2-4-2.1,0,0,0,4.3,0,4.3ZM201,60.2h3.9v6.9h0l4.4-6.9h4.1l-5.1,7.7,5.4,7.7h-4.6s-4.2-6.7-4.3-6.7c0,0,0,6.7,0,6.7h-3.9v-15.4h0Z"/>
        <path id="bandeira" class="cls-43" d="M52.2,10.8c-3.2,0-5.7,2.6-5.7,5.7s2.6,5.7,5.7,5.7,5.7-2.6,5.7-5.7-2.6-5.7-5.7-5.7ZM55.9,17.4h-2.7v2.6h-2v-2.6h-2.7v-2h2.7v-2.7h2v2.7h2.7v2Z"/>
        <g id="sdgs">
          <path class="cls-34" d="M175.3,70.6c1.5.8,3.3.2,4-1.2.8-1.5.2-3.3-1.2-4-1.5-.8-3.3-.2-4,1.2-.8,1.5-.2,3.3,1.2,4h0ZM177.6,66.2c1,.5,1.3,1.7.8,2.7-.5,1-1.7,1.3-2.7.8-1-.5-1.3-1.7-.8-2.7.5-1,1.7-1.3,2.7-.8h0Z"/>
          <path class="cls-36" d="M175.5,67.3c.3-.6,1.1-.9,1.8-.5.6.3.9,1.1.5,1.8-.3.6-1.1.9-1.8.5-.6-.3-.9-1.1-.5-1.8Z"/>
          <path class="cls-31" d="M172.7,65.6c.2-.3.4-.7.7-.9l-2.4-2.6c-.6.6-1.1,1.2-1.5,2l3.2,1.6Z"/>
          <path class="cls-4" d="M178.6,63.7c.4.2.7.4,1,.6l2.4-2.6c-.6-.5-1.3-1-2.1-1.3l-1.3,3.3h0Z"/>
          <path class="cls-38" d="M184.1,64.5l-3.2,1.6c.2.4.3.7.3,1.1l3.5-.3c-.1-.8-.3-1.6-.7-2.4"/>
          <path class="cls-41" d="M180.7,65.6l3.2-1.6c-.4-.7-.9-1.4-1.5-2l-2.4,2.6c.3.3.5.6.7.9"/>
          <path class="cls-54" d="M172.1,67.9c0,0,0-.1,0-.2l-3.5-.3c0,.2,0,.4,0,.5,0,.7,0,1.3.2,2l3.4-1c0-.3-.1-.6-.1-1"/>
          <path class="cls-10" d="M180.2,70.8c-.3.3-.5.6-.9.8l1.9,3c.7-.5,1.3-1,1.8-1.7l-2.8-2.1h0Z"/>
          <path class="cls-11" d="M181.3,67.9c0,.3,0,.7-.1,1l3.4,1c.2-.6.2-1.3.2-2s0-.3,0-.5l-3.5.3c0,0,0,.1,0,.2"/>
          <path class="cls-33" d="M173.2,70.9l-2.8,2.1c.5.6,1.1,1.2,1.8,1.7l1.9-3c-.3-.2-.6-.5-.9-.8"/>
          <path class="cls-2" d="M172.2,67.2c0-.4.2-.8.3-1.1l-3.2-1.6c-.4.7-.6,1.6-.7,2.4l3.5.3h0Z"/>
          <path class="cls-16" d="M180.8,74.9l-1.9-3c-.3.2-.7.3-1.1.4l.7,3.5c.8-.2,1.6-.5,2.3-.9"/>
          <path class="cls-5" d="M181,69.4c-.1.4-.3.7-.5,1l2.8,2.1c.5-.7.8-1.4,1.1-2.2l-3.4-1h0Z"/>
          <path class="cls-12" d="M177.4,72.4c-.2,0-.4,0-.7,0s-.4,0-.5,0l-.7,3.5c.4,0,.8,0,1.2,0s.9,0,1.3-.1l-.7-3.5h0Z"/>
          <path class="cls-48" d="M177,63.3c.4,0,.8.1,1.1.2l1.3-3.3c-.8-.3-1.6-.4-2.4-.5v3.6Z"/>
          <path class="cls-23" d="M175.7,72.4c-.4,0-.8-.2-1.1-.4l-1.9,3c.7.4,1.5.7,2.3.9l.7-3.5h0Z"/>
          <path class="cls-3" d="M175.3,63.5c.4-.1.8-.2,1.2-.2v-3.6c-.9,0-1.7.2-2.4.4l1.3,3.3h0Z"/>
          <path class="cls-17" d="M172.9,70.5c-.2-.3-.4-.7-.5-1.1l-3.4,1c.3.8.6,1.6,1.1,2.3l2.8-2.1h0Z"/>
          <path class="cls-7" d="M173.8,64.3c.3-.2.6-.4,1-.6l-1.3-3.3c-.8.3-1.5.8-2.1,1.3l2.4,2.6h0Z"/>
          <path class="cls-39" d="M189.5,54.8c-.2,1.6-1.2,3.1-2.6,3.9-1.4.9-3.1,1.1-4.7.6.7-2.2,2-4.2,3.7-5.7-1.2.6-2.2,1.7-3,2.9s-1.3,2.5-1.8,3.8c-.5,0-.7-.4-.7-.4,0-.2.4-1,.8-1.8-.8-1.2-.2-3,.8-4,.8-.8,2.3-1.2,3.3-1.7,1-.5,2.1-1.1,2.6-2.1,1.1,1.2,1.6,2.9,1.4,4.5h0Z"/>
        </g>
        <g>
          <path class="cls-40" d="M70.5,68.8c0-.2.1-.3.2-.5.1-.3.2-.4.3-.4l.7-.2.5-.2c0,0,.2,0,.2.1,0,.3,0,.6,0,.8,0,.1,0,.3,0,.4-.3.3-.7.8-.8.9s0,.2-.3.2l-.6.2c0,0-.1,0-.2,0l-.2-.5c-.1-.1.2-.7.2-.8h0Z"/>
          <path class="cls-42" d="M71.7,69.9c.3-.3.5-.6.8-1,0,0,.1,0,.2,0s.4.4.5.5.2.2.2.2c0,0,.1.1,0,.2,0,.1,0,.2-.3.4-.3.4-.5.8-.8,1,0,0,0,0-.1,0s-.3-.5-.3-.6-.2-.4-.3-.5-.1-.2,0-.3h0Z"/>
          <path class="cls-35" d="M69.7,72.6c.1-.4.2-.8.3-1,0-.3.4-.7.5-1,.1-.2.2-.3.2-.3.1,0,.5-.2.5-.2.2,0,.2-.1.4.1.1.2.5.9.6,1,.1.2.2.2,0,.3-.4.4-1.7,1-2.1,1.2-.4.1-.5.2-.4-.2h0Z"/>
          <path class="cls-13" d="M67.6,69.7c0,.2.3,1.1.3,1.2s0,.2.2.2.3,0,.7,0c.4,0,.9.1,1,.1.1,0,.2,0,.3-.1,0-.2.3-.6.4-.7,0-.1-.2-.7-.3-.8,0,0,0-.1-.2-.2-.3,0-1-.3-1.3-.3-.2,0-.8.3-1,.4,0,0-.1,0,0,.1h0Z"/>
          <path class="cls-19" d="M66.7,69.7c-.1,0-.2.3-.3.5,0,.2-.1.2-.1.4,0,.2,0,.6,0,.8s0,.7,0,.8c0,.1.2.2.3.2s.3.1.5.2.3.2.3,0,0-.2.1-.5c0-.5.3-.8.2-1.3,0-.2-.1-.6-.2-.8s0-.5-.3-.5-.5,0-.6,0h0Z"/>
          <path class="cls-49" d="M67.9,71.4c-.1.4-.2,1.1-.3,1.4,0,0,.1,0,.3,0,.5,0,1.1,0,1.5,0,.1,0,.1,0,.2-.3s.1-.4.2-.6.1-.3.1-.4,0-.1,0-.2-.4,0-.7,0c-.3,0-.9-.1-1-.1s-.2,0-.2.1h0Z"/>
          <path class="cls-6" d="M64.7,70.8c0,0-.2-.2,0-.2.1,0,.6-.1.8-.2s.3,0,.5-.1c.1,0,.2,0,.2.2,0,.5.1,1.2,0,1.6,0,0-.1,0-.2,0-.5-.2-1.2-1.1-1.4-1.3h0Z"/>
          <path class="cls-51" d="M64.6,69.5c.2-.4.4-.7.6-.9.1-.1.6,0,.8,0,.1,0,.4,0,.4,0,0,.2.2.8.2.9,0,.1-.2.5-.3.6,0,.1-.6.2-.8.2-.3,0-.8.2-.9.2s-.1,0-.2-.1c-.1-.1-.3-.3-.2-.3,0,0,.4-.4.5-.6h0Z"/>
          <path class="cls-27" d="M63.8,66.8c-.1.1-.2.6-.2.9,0,.3.1.9.2,1.3,0,.3.2.6.2.8s0,.3.2,0,.5-.7.7-.9c.2-.3.3-.3.2-.6,0-.2-.2-.8-.2-.9,0-.3,0-.2-.2-.3s-.3-.2-.6-.2c-.1,0-.2-.1-.3,0h0Z"/>
          <path class="cls-15" d="M64.3,65.3c.1-.2.6-.7.7-.9.1-.2.3-.4.4-.4s0,.2.2.5.2.5.2.7,0,.3-.2.5-.6,1.1-.7,1.3c0,.1-.2,0-.4,0s-.6-.1-.6-.3c0-.4.3-1,.4-1.4h0Z"/>
          <path class="cls-50" d="M65.6,64.2c0-.2-.2-.3,0-.4.1-.1.6-.5,1-.6s.8-.3.9-.4c.1,0,.1,0,.2.2s.2.4.2.5,0,.1,0,.3-.3.5-.4.8-.3.4-.4.6-.1.2-.3.1-.5,0-.6,0-.1,0-.2-.2c0-.2-.2-.7-.2-.8h0Z"/>
          <path class="cls-46" d="M67.7,63c0-.2-.2-.3.1-.3.3,0,.5,0,.6,0s.9,0,1,0c.3,0,.7.2,1,.3.1,0,.3,0,.1.2-.4.2-1.3.5-1.6.7,0,0,0,0-.2,0l-.7-.2c-.2,0-.3-.5-.4-.6h0Z"/>
          <path class="cls-28" d="M69,64.2c0,.2.2.5.2.6,0,.1.1.2.3.2.6.2,1.2.4,1.7.6.1,0,.2,0,.3,0s0-.1,0-.3-.3-.8-.3-1c0-.2-.1-.4-.2-.6s0-.4-.2-.3c-.1,0-1.2.5-1.3.5l-.4.2c0,0-.1,0-.1.2h0Z"/>
          <path class="cls-22" d="M71,63.7c0,.3.4,1.3.5,1.6,0,0,0,.1.2.1s1.1,0,1.3,0c.3,0,.2-.1.2-.2-.2-.3-.7-1-1-1.3-.3-.2-.7-.5-.9-.6-.4-.3-.3,0-.2.3h0Z"/>
          <path class="cls-52" d="M71.1,66.1c.1-.3.2-.4.3-.6,0,0,.1-.1.3,0,.2,0,.5,0,.8,0,.3,0,.6,0,.7,0s.2,0,.2.1c.1.3.2.9.3,1.1,0,.1,0,.2-.1.3-.2,0-.6.2-.7.2-.1,0-.3.2-.4.1-.3-.2-.8-.8-1.2-1-.2-.1-.2-.2-.2-.3h0Z"/>
          <path class="cls-44" d="M72.5,67.8c0,0,0-.3.1-.3.2,0,.7-.3.9-.3.2,0,.2,0,.3.2.1.5,0,.6,0,1.1,0,.4-.1.7-.2.9,0,.2,0,.4-.3.2-.2-.2-.4-.4-.6-.6s-.3-.2-.3-.4,0-.7,0-.8h0Z"/>
          <path class="cls-29" d="M69.1,67.2c.1-.2.1-.2.4-.2.2,0,.4,0,.5.1l.5.5c.2.2.4.3.3.5-.1.3-.5,1.1-.6,1.3,0,0,0,.1-.2,0s-.2,0-.5-.1c-.3,0-.8-.1-.8-.3s0-.5,0-.8,0-.4,0-.5c.1-.2.2-.4.3-.4h0Z"/>
          <path class="cls-9" d="M70.2,66.9c.2-.1.4-.3.5-.4s.2-.2.3-.1c.2.2.7.6.9.8.1.1.4.3.3.3-.1,0-.5.1-.7.2-.3,0-.6.3-.8,0,0,0-.5-.4-.6-.5-.2-.2-.2-.2,0-.4h0Z"/>
          <path class="cls-20" d="M68.7,65.8c0-.1.3-.6.4-.7,0,0,0-.2.3,0,.5.2,1.3.4,1.8.6,0,0,0,.1,0,.3,0,.2-.1.2-.3.4-.3.2-.7.6-.8.6-.1.1-.5,0-.6,0-.1,0-.2,0-.3-.2s-.3-.5-.4-.5c0-.1,0-.1,0-.3h0Z"/>
          <path class="cls-21" d="M67.5,64.5c0-.2.2-.5.3-.6,0-.1.1-.2.2-.2s.3.1.5.2c.3.1.3,0,.4.4,0,0,0,.2.1.4,0,.1,0,.1-.1.5s-.3.5-.3.7c0,.2-.2,0-.4-.1s-.5-.4-.6-.5c-.2-.2-.4-.2-.4-.3,0,0,.1-.2.2-.4h0Z"/>
          <path class="cls-24" d="M66.9,65.5s0-.2.1-.3c.1-.1.1-.2.3,0,.2.1.4.3.6.5.3.2.5.4.6.5.3.3.5.7.5.8,0,.1-.1.2-.2.4s-.2.3-.2.3,0,.1-.2,0-.7-.3-1-.4c-.2-.1-.7-.2-.7-.4,0-.2,0-1.1,0-1.4h0Z"/>
          <path class="cls-45" d="M65.7,65.6c.1-.2.1-.3.3-.3.1,0,.6,0,.6,0,.3,0,.1.8.1.9,0,.1,0,.7,0,.9,0,.2-.2.8-.3.8s0,.4-.2.5c-.2,0-.5,0-.8,0-.1,0-.2,0-.2-.2s-.2-1-.3-1,0-.2,0-.3.5-1.1.7-1.4h0Z"/>
          <path class="cls-53" d="M66.8,67.2c0,.2-.3,1.1-.4,1.2,0,.2.1.6.2.9,0,.2,0,.3.2.3s.5,0,.8-.1l.8-.3c0,0,.2,0,.2-.3s0-.8,0-.9,0-.2-.3-.3c-.4-.1-1-.4-1.2-.5-.1,0-.3-.1-.3,0h0Z"/>
        </g>
        <g id="_x32_5">
          <g>
            <circle class="cls-18" cx="98.9" cy="49.9" r="11.6"/>
            <path class="cls-14" d="M91,55.8c3.3,4.7,9.6,6.1,14.8,3.4,2.8-2.1,4.6-5.5,4.6-9.3,0-6.4-5.2-11.6-11.6-11.6s-2.6.2-3.8.6c-.3.2-.5.3-.8.5-5.4,3.8-6.9,11.1-3.3,16.2h0Z"/>
            <path class="cls-1" d="M93,54.7c3.1,4.5,9.1,5.8,14.1,3.4,2.1-2.1,3.4-5,3.4-8.2,0-6.4-5.2-11.6-11.6-11.6s-1.3,0-2,.2c-.3.2-.6.4-.9.6-5.2,3.6-6.5,10.6-3,15.6h0Z"/>
            <path class="cls-25" d="M94.9,53.6c2.9,4.2,8.3,5.6,12.9,3.6,1.7-2,2.7-4.6,2.7-7.4,0-6.4-5.2-11.6-11.6-11.6s-.5,0-.7,0c-.2.1-.3.2-.5.3-4.9,3.4-6.2,10.1-2.8,15h0Z"/>
            <path class="cls-32" d="M96.9,52.6c2.6,3.8,7.4,5.2,11.6,3.9,1.3-1.9,2-4.1,2-6.5,0-6.2-4.9-11.3-11.1-11.6-4.6,3.3-5.7,9.6-2.5,14.3h0Z"/>
            <path class="cls-30" d="M99.5,51.3c2.4,3.4,6.1,5,9.4,4.5,1-1.7,1.6-3.7,1.6-5.9,0-5.8-4.2-10.6-9.8-11.4,0,0,0,0,0,0-3.8,2.6-4.3,8.4-1.2,12.8h0Z"/>
          </g>
          <path class="cls-26" d="M94.8,52.6h3.5v1.8h-6.5v-1.3c7.7-6.1,3-7.7.7-5.8l-.6-1.6c4.5-3.2,9.9,1.5,3,6.9h0ZM102,48.2l.2-1.5h3.6v-1.8h-5.1l-.6,5c5.9-.9,4.5,4.6,0,2.5l-.4,1.7c8.1,2.8,8.6-6.7,2.4-5.9h0Z"/>
        </g>
      </g>
    </g>
  </g>
</svg>